<?xml version="1.0" encoding="UTF-8" ?>
<!DOCTYPE svg PUBLIC "-//W3C//DTD SVG 1.1//EN" "http://www.w3.org/Graphics/SVG/1.1/DTD/svg11.dtd">
<svg width="1114pt" height="461pt" viewBox="0 0 1114 461" version="1.1" xmlns="http://www.w3.org/2000/svg">
<g id="#ffffffff">
</g>
<g id="#0083d3ff">
<path fill="#0083d3" opacity="1.00" d=" M 645.97 14.01 C 660.31 8.58 675.70 6.45 690.96 5.98 C 708.80 5.87 726.85 8.12 743.65 14.36 C 761.41 20.90 777.67 31.52 790.65 45.32 C 811.03 65.69 820.34 96.65 813.78 124.79 C 771.84 132.87 729.75 140.24 687.52 146.61 C 687.49 143.58 687.49 140.54 687.50 137.51 C 695.99 137.85 705.19 136.46 711.89 130.86 C 718.75 125.08 720.00 114.83 717.19 106.70 C 715.96 102.71 712.75 99.85 709.78 97.13 C 704.37 92.62 696.73 92.36 690.09 93.43 C 683.02 94.80 677.53 100.65 675.76 107.50 C 672.04 120.97 673.96 135.08 673.52 148.85 C 639.93 154.14 606.18 158.43 572.50 163.06 C 572.74 142.40 571.33 121.51 575.52 101.12 C 579.87 77.82 590.42 55.19 607.64 38.62 C 618.32 27.65 631.61 19.28 645.97 14.01 Z" />
<path fill="#0083d3" opacity="1.00" d=" M 359.22 22.15 C 384.85 8.01 415.26 4.78 443.97 8.26 C 470.20 11.31 495.78 22.62 514.35 41.62 C 526.21 52.98 535.41 66.96 542.10 81.92 C 550.99 102.40 554.84 124.75 555.52 146.97 C 555.49 152.94 555.46 158.91 555.54 164.88 C 506.82 171.10 457.94 176.12 409.01 180.29 C 409.00 171.36 408.99 162.43 409.01 153.50 C 423.51 153.51 438.00 153.50 452.50 153.50 C 452.59 141.50 453.41 128.31 446.16 117.99 C 438.73 106.70 422.45 104.15 410.79 109.81 C 400.58 115.12 396.19 127.13 396.00 138.06 C 396.00 152.43 396.00 166.81 396.00 181.18 C 392.42 182.05 388.71 182.00 385.07 182.37 C 357.00 184.66 328.91 186.57 300.80 188.28 C 297.88 188.59 294.93 188.53 292.00 188.49 C 292.15 174.33 291.58 160.14 292.51 146.01 C 293.00 119.85 298.69 93.43 311.32 70.35 C 322.46 50.33 339.00 33.08 359.22 22.15 Z" />
<path fill="#0083d3" opacity="1.00" d=" M 45.00 12.00 C 93.65 11.99 142.31 12.02 190.96 11.98 C 208.42 12.36 226.33 14.00 242.42 21.34 C 255.72 27.23 267.03 38.06 272.15 51.82 C 277.39 66.60 278.02 83.14 272.92 98.06 C 268.70 111.75 261.01 124.09 251.89 135.04 C 235.49 154.20 219.04 173.32 202.67 192.50 C 190.78 193.27 178.84 192.62 166.95 193.51 C 141.96 193.47 116.97 193.52 91.98 193.49 C 86.78 193.02 81.58 192.87 76.36 193.02 C 102.17 163.32 128.08 133.70 153.93 104.04 C 117.62 103.95 81.31 104.03 45.00 104.00 C 45.00 73.33 45.00 42.67 45.00 12.00 Z" />
<path fill="#0083d3" opacity="1.00" d=" M 950.95 12.99 C 961.29 12.15 971.65 11.83 982.03 12.00 C 1011.44 11.99 1040.86 12.02 1070.28 11.99 C 1070.81 27.65 1070.30 43.34 1070.54 59.01 C 1056.71 64.44 1042.43 68.59 1028.29 73.11 C 972.31 90.17 915.35 103.80 858.10 115.84 C 856.29 116.74 855.99 114.26 855.88 113.13 C 853.64 95.69 854.95 77.11 863.31 61.33 C 869.44 48.57 880.05 38.48 891.85 30.93 C 909.63 20.04 930.32 14.76 950.95 12.99 Z" />
<path fill="#0083d3" opacity="1.00" d=" M 859.26 127.78 C 930.63 110.32 1001.75 90.99 1070.48 64.78 C 1070.32 78.37 1070.90 91.99 1070.17 105.55 C 1043.10 105.42 1016.03 105.56 988.96 105.48 C 985.26 105.52 981.54 106.01 978.01 107.08 C 973.83 108.21 971.19 113.04 972.29 117.18 C 973.30 122.52 977.95 125.93 981.82 129.26 C 993.67 138.72 1005.66 148.01 1017.56 157.41 C 1027.59 165.33 1037.80 173.07 1047.28 181.65 C 1056.91 190.09 1066.11 199.33 1072.81 210.32 C 1080.55 223.89 1083.21 239.85 1082.82 255.28 C 1082.32 268.61 1079.44 282.04 1072.87 293.75 C 1061.75 314.30 1041.26 328.27 1019.48 335.60 C 1000.41 342.13 980.08 344.37 960.00 344.00 C 924.33 344.00 888.67 344.00 853.00 344.00 C 853.00 312.00 853.00 280.00 853.00 248.00 C 879.00 248.00 905.00 248.00 931.01 248.00 C 938.03 247.93 945.14 248.43 952.06 246.89 C 955.52 245.98 959.12 243.88 960.30 240.29 C 962.57 233.17 959.71 224.72 953.58 220.43 C 939.77 209.57 926.01 198.66 912.22 187.78 C 901.92 179.45 891.22 171.60 881.25 162.88 C 871.25 153.16 863.54 141.07 859.26 127.78 Z" />
<path fill="#0083d3" opacity="1.00" d=" M 693.82 162.62 C 732.21 155.49 770.51 147.82 808.62 139.29 C 803.39 149.71 795.93 159.03 786.61 166.07 C 799.05 173.60 810.58 182.81 819.72 194.18 C 829.17 206.18 835.41 220.77 837.02 235.99 C 838.47 251.11 837.40 266.69 832.02 281.01 C 825.49 298.97 812.84 314.43 797.07 325.12 C 781.20 336.21 761.92 340.97 742.87 342.62 C 724.48 344.63 705.97 343.86 687.50 344.00 C 687.50 315.17 687.50 286.34 687.50 257.50 C 699.32 257.39 712.42 258.84 722.67 251.66 C 733.98 244.11 735.62 226.40 726.66 216.43 C 721.48 210.57 713.56 208.06 705.98 207.41 C 699.84 206.68 693.66 207.11 687.50 207.00 C 687.55 192.71 687.40 178.42 687.57 164.14 C 689.42 163.02 691.74 163.11 693.82 162.62 Z" />
<path fill="#0083d3" opacity="1.00" d=" M 572.48 183.14 C 606.23 178.15 639.86 172.32 673.46 166.37 C 673.55 225.58 673.48 284.79 673.50 344.00 C 639.83 344.00 606.17 344.00 572.50 344.00 C 572.48 290.38 572.53 236.76 572.48 183.14 Z" />
<path fill="#0083d3" opacity="1.00" d=" M 409.09 205.19 C 458.02 199.80 506.79 193.04 555.49 185.90 C 555.51 238.60 555.50 291.30 555.50 344.00 C 521.17 344.00 486.83 344.00 452.50 344.00 C 452.50 309.00 452.50 274.01 452.51 239.01 C 438.00 238.98 423.50 239.01 409.00 239.00 C 409.05 227.73 408.89 216.46 409.09 205.19 Z" />
<path fill="#0083d3" opacity="1.00" d=" M 382.75 208.19 C 387.17 207.79 391.56 207.09 396.00 206.93 C 396.00 252.62 396.00 298.31 396.00 344.00 C 361.33 344.00 326.67 344.00 292.00 344.00 C 291.97 301.66 292.05 259.32 291.96 216.98 C 322.23 214.19 352.53 211.52 382.75 208.19 Z" />
<path fill="#0083d3" opacity="1.00" d=" M 141.99 225.52 C 153.05 225.67 164.06 224.58 175.11 224.46 C 168.50 232.61 161.41 240.36 154.75 248.48 C 195.50 248.54 236.25 248.48 277.00 248.50 C 277.00 280.33 277.00 312.17 277.00 344.00 C 220.01 344.00 163.02 344.00 106.04 344.00 C 92.26 344.38 78.24 343.27 65.16 338.66 C 52.37 334.31 40.47 326.29 33.27 314.67 C 23.81 299.32 22.41 279.95 26.84 262.73 C 30.28 249.07 38.48 237.30 47.18 226.47 C 56.63 226.66 66.09 226.23 75.53 226.70 C 89.35 226.19 103.20 226.71 117.03 226.45 C 125.33 225.47 133.70 226.53 141.99 225.52 Z" />
<path fill="#0083d3" opacity="1.00" d=" M 25.08 364.07 C 379.59 364.05 734.10 364.05 1088.61 364.07 C 1088.61 370.03 1088.61 376.00 1088.61 381.96 C 734.10 381.99 379.60 381.98 25.09 381.97 C 25.07 376.00 25.07 370.03 25.08 364.07 Z" />
<path fill="#0083d3" opacity="1.00" d=" M 238.48 389.73 C 243.58 387.31 249.81 392.37 248.65 397.84 C 248.07 403.34 240.70 406.12 236.61 402.42 C 232.30 399.17 233.38 391.57 238.48 389.73 Z" />
<path fill="#0083d3" opacity="1.00" d=" M 327.32 396.35 C 336.38 385.46 356.78 386.58 363.36 399.60 C 366.64 405.72 364.76 413.93 358.52 417.34 C 361.29 418.81 363.98 420.66 365.65 423.39 C 370.06 430.13 368.09 440.02 361.59 444.72 C 355.51 449.42 347.35 448.77 340.12 448.87 C 340.09 444.44 340.10 440.02 340.11 435.60 C 343.48 435.39 347.26 436.25 350.28 434.33 C 353.38 432.32 352.88 426.99 349.46 425.59 C 346.51 424.38 343.22 424.95 340.12 424.82 C 340.09 420.89 340.10 416.96 340.11 413.04 C 343.19 412.73 347.29 413.27 349.17 410.18 C 351.27 406.56 348.21 401.51 343.98 401.96 C 340.27 401.84 337.84 405.52 337.98 408.94 C 337.87 422.22 337.99 435.51 337.93 448.79 C 332.83 448.80 327.72 448.80 322.62 448.79 C 322.57 436.19 322.62 423.59 322.59 410.98 C 322.53 405.78 323.84 400.35 327.32 396.35 Z" />
<path fill="#0083d3" opacity="1.00" d=" M 24.90 390.06 C 35.29 390.07 45.69 390.02 56.08 390.07 C 59.93 390.01 64.14 391.98 65.44 395.83 C 66.81 399.37 65.30 403.21 63.11 406.06 C 55.93 415.58 48.73 425.10 41.55 434.62 C 49.68 434.65 57.81 434.60 65.94 434.65 C 65.95 439.38 65.95 444.12 65.93 448.86 C 55.28 448.89 44.64 448.84 33.99 448.89 C 30.28 449.01 25.98 448.61 23.50 445.48 C 20.57 441.92 21.50 436.64 24.23 433.25 C 31.61 423.46 39.07 413.73 46.45 403.95 C 39.27 403.93 32.08 403.95 24.89 403.94 C 24.88 399.31 24.88 394.69 24.90 390.06 Z" />
<path fill="#0083d3" opacity="1.00" d=" M 188.11 390.07 C 192.61 390.05 197.11 390.05 201.61 390.07 C 201.61 401.74 201.62 413.40 201.60 425.07 C 201.66 427.92 201.69 431.06 203.54 433.41 C 206.13 436.91 212.09 437.29 214.95 433.93 C 218.64 430.02 218.11 422.19 212.90 419.83 C 209.92 418.41 206.63 419.43 203.60 420.13 C 203.60 415.54 203.58 410.95 203.63 406.37 C 210.45 404.98 218.14 405.78 223.59 410.47 C 233.65 418.56 233.94 435.78 224.11 444.18 C 215.52 452.28 200.56 450.95 193.11 441.95 C 189.28 437.99 188.13 432.36 188.14 427.03 C 188.06 414.71 188.12 402.38 188.11 390.07 Z" />
<path fill="#0083d3" opacity="1.00" d=" M 660.15 393.15 C 666.15 389.33 673.58 390.12 680.35 390.07 C 680.38 394.20 680.37 398.34 680.36 402.48 C 676.83 402.61 673.25 402.13 669.77 402.78 C 667.77 403.24 667.88 405.53 667.54 407.11 C 671.80 407.14 676.07 407.12 680.35 407.13 C 680.38 411.25 680.37 415.36 680.36 419.48 C 676.14 419.49 671.93 419.48 667.71 419.50 C 667.70 429.28 667.72 439.07 667.70 448.86 C 663.16 448.88 658.61 448.87 654.07 448.86 C 654.05 434.89 654.04 420.91 654.07 406.94 C 654.09 401.82 655.57 396.06 660.15 393.15 Z" />
<path fill="#0083d3" opacity="1.00" d=" M 718.07 391.38 C 726.95 389.13 736.22 390.38 745.28 390.06 C 745.31 394.58 745.29 399.10 745.31 403.62 C 738.57 403.94 731.76 403.14 725.07 404.11 C 722.66 404.71 723.69 407.72 725.22 408.78 C 732.47 414.47 742.97 416.77 747.35 425.60 C 751.64 433.86 746.89 445.12 737.85 447.58 C 728.03 449.91 717.80 448.47 707.80 448.86 C 707.77 444.12 707.78 439.38 707.80 434.64 C 715.18 434.52 722.57 434.82 729.94 434.51 C 732.50 434.42 733.31 431.08 731.41 429.52 C 724.95 423.50 714.97 421.69 710.15 413.83 C 705.15 406.07 709.02 394.05 718.07 391.38 Z" />
<path fill="#0083d3" opacity="1.00" d=" M 908.55 390.06 C 913.06 390.05 917.58 390.05 922.10 390.06 C 922.06 403.03 922.22 416.00 922.02 428.96 C 922.12 434.98 919.39 440.94 914.68 444.71 C 909.09 449.39 901.19 450.53 894.25 448.81 C 887.47 447.08 881.78 441.62 879.87 434.89 C 877.66 427.13 879.22 417.92 885.33 412.31 C 890.79 406.83 899.15 405.58 906.50 407.10 C 906.49 411.67 906.47 416.25 906.53 420.83 C 903.54 420.21 900.32 419.31 897.38 420.58 C 891.33 422.96 891.33 433.15 897.34 435.57 C 899.81 436.46 902.77 436.40 905.08 435.06 C 907.74 433.40 908.58 430.05 908.54 427.09 C 908.54 414.75 908.51 402.40 908.55 390.06 Z" />
<path fill="#0083d3" opacity="1.00" d=" M 1037.44 390.07 C 1041.95 390.05 1046.46 390.05 1050.97 390.06 C 1050.99 401.03 1050.96 411.99 1050.98 422.96 C 1051.03 428.90 1051.11 435.40 1047.43 440.43 C 1040.21 451.37 1022.69 452.73 1013.67 443.34 C 1007.99 437.74 1006.57 428.93 1008.63 421.43 C 1010.59 414.30 1016.76 408.55 1024.01 407.07 C 1027.74 406.15 1031.62 406.52 1035.39 407.11 C 1035.40 411.69 1035.39 416.28 1035.40 420.87 C 1032.45 420.22 1029.26 419.32 1026.34 420.52 C 1020.16 422.80 1020.12 433.25 1026.24 435.60 C 1029.34 436.66 1033.45 436.35 1035.57 433.55 C 1037.41 431.13 1037.39 427.92 1037.46 425.03 C 1037.42 413.37 1037.45 401.72 1037.44 390.07 Z" />
<path fill="#0083d3" opacity="1.00" d=" M 755.21 397.03 C 759.77 397.01 764.33 397.01 768.89 397.03 C 768.89 400.39 768.89 403.76 768.90 407.13 C 772.41 407.13 775.93 407.13 779.45 407.13 C 779.47 411.25 779.47 415.37 779.46 419.48 C 775.93 419.48 772.41 419.48 768.89 419.51 C 769.08 424.59 768.50 429.72 769.20 434.77 C 771.64 437.62 776.12 436.13 779.46 436.51 C 779.46 440.63 779.47 444.75 779.45 448.87 C 773.11 448.87 766.08 449.24 760.67 445.35 C 756.51 442.31 755.29 436.88 755.22 432.00 C 755.16 420.35 755.21 408.69 755.21 397.03 Z" />
<path fill="#0083d3" opacity="1.00" d=" M 82.43 407.67 C 89.15 405.41 97.02 405.99 102.97 410.03 C 108.29 413.48 111.78 419.56 111.92 425.92 C 112.11 433.57 111.95 441.22 112.00 448.87 C 107.50 448.87 103.01 448.87 98.52 448.87 C 98.48 442.22 98.54 435.57 98.51 428.92 C 98.55 425.75 97.60 422.02 94.48 420.57 C 91.23 419.17 86.76 419.43 84.53 422.49 C 81.65 426.30 82.34 432.95 86.87 435.21 C 89.90 436.78 93.37 435.83 96.48 435.04 C 96.48 439.63 96.49 444.23 96.46 448.83 C 89.83 450.14 82.43 449.40 76.99 445.10 C 71.42 440.95 68.46 433.91 68.92 427.04 C 68.78 418.58 74.46 410.47 82.43 407.67 Z" />
<path fill="#0083d3" opacity="1.00" d=" M 127.81 408.83 C 134.74 404.69 144.27 405.84 150.00 411.56 C 157.10 404.45 170.06 404.63 176.53 412.47 C 180.02 416.44 181.24 421.86 181.24 427.03 C 181.29 434.31 181.26 441.58 181.24 448.86 C 176.73 448.87 172.23 448.87 167.72 448.86 C 167.60 440.59 167.85 432.32 167.61 424.05 C 167.58 420.89 164.17 418.40 161.14 419.19 C 158.50 419.70 156.58 422.30 156.82 424.98 C 156.74 432.94 156.85 440.89 156.79 448.85 C 152.30 448.88 147.82 448.87 143.34 448.86 C 143.24 440.58 143.50 432.30 143.23 424.04 C 143.14 420.09 138.10 417.69 134.88 419.89 C 133.14 420.94 132.29 422.99 132.38 424.97 C 132.32 432.93 132.42 440.90 132.35 448.86 C 127.90 448.87 123.45 448.87 119.01 448.87 C 119.03 440.89 118.94 432.91 119.03 424.94 C 119.15 418.59 122.27 412.14 127.81 408.83 Z" />
<path fill="#0083d3" opacity="1.00" d=" M 234.55 407.13 C 239.00 407.13 243.46 407.12 247.91 407.15 C 247.94 421.05 247.86 434.95 247.82 448.85 C 243.40 448.88 238.98 448.87 234.55 448.87 C 234.52 434.96 234.52 421.04 234.55 407.13 Z" />
<path fill="#0083d3" opacity="1.00" d=" M 260.64 410.68 C 271.56 402.04 290.47 406.74 294.67 420.46 C 296.73 429.76 295.44 439.40 295.79 448.86 C 291.24 448.87 286.69 448.88 282.14 448.86 C 281.95 441.21 282.46 433.53 281.89 425.90 C 281.35 420.36 274.26 418.17 269.94 420.88 C 265.08 424.04 265.29 432.71 270.65 435.25 C 273.66 436.79 277.09 435.82 280.16 435.02 C 280.16 439.62 280.18 444.23 280.15 448.83 C 273.11 450.24 265.18 449.25 259.69 444.30 C 249.74 435.96 250.16 418.41 260.64 410.68 Z" />
<path fill="#0083d3" opacity="1.00" d=" M 373.14 407.15 C 377.69 407.12 382.24 407.12 386.79 407.15 C 386.87 415.10 386.68 423.06 386.86 431.01 C 386.72 434.69 390.52 437.54 394.04 436.72 C 396.81 436.44 398.94 433.81 398.98 431.09 C 399.15 423.11 398.97 415.12 399.05 407.14 C 403.58 407.12 408.12 407.12 412.66 407.14 C 412.59 415.14 412.85 423.14 412.52 431.14 C 412.18 438.86 407.11 446.46 399.51 448.66 C 389.09 452.18 376.00 446.15 373.80 434.94 C 372.44 425.76 373.42 416.40 373.14 407.15 Z" />
<path fill="#0083d3" opacity="1.00" d=" M 420.03 407.14 C 424.19 407.12 428.35 407.13 432.51 407.13 C 432.50 409.11 432.48 411.09 432.43 413.08 C 435.84 408.19 441.98 406.84 447.60 407.08 C 447.62 411.33 447.61 415.59 447.62 419.85 C 442.35 419.73 435.55 421.16 434.08 427.09 C 432.47 434.21 433.68 441.62 433.28 448.86 C 428.86 448.87 424.45 448.87 420.03 448.86 C 420.01 434.95 420.01 421.05 420.03 407.14 Z" />
<path fill="#0083d3" opacity="1.00" d=" M 449.95 427.00 C 450.01 415.62 460.74 405.85 472.03 406.46 C 480.66 406.27 488.27 412.11 492.05 419.58 C 485.06 424.17 478.09 428.78 471.10 433.36 C 469.30 430.78 467.53 428.20 465.81 425.57 C 469.58 423.03 473.38 420.54 477.09 417.92 C 473.38 416.16 468.54 416.43 465.73 419.69 C 460.60 424.71 462.89 434.88 470.04 436.62 C 476.25 438.18 481.89 433.59 484.74 428.46 C 488.20 430.06 491.65 431.67 495.10 433.31 C 492.61 438.68 488.88 443.66 483.60 446.53 C 475.79 450.92 465.21 450.69 458.16 444.91 C 452.75 440.70 449.44 433.89 449.95 427.00 Z" />
<path fill="#0083d3" opacity="1.00" d=" M 504.61 411.67 C 510.24 406.45 518.70 405.28 525.92 407.27 C 533.66 409.46 540.00 416.42 540.63 424.56 C 541.25 432.64 540.83 440.76 540.93 448.86 C 536.40 448.87 531.87 448.87 527.34 448.86 C 527.30 442.26 527.39 435.67 527.32 429.08 C 527.29 426.13 526.72 422.69 524.03 420.98 C 520.58 418.95 515.30 419.31 513.02 422.92 C 510.58 426.81 511.32 433.12 515.77 435.24 C 518.79 436.79 522.24 435.82 525.33 435.02 C 525.34 439.62 525.35 444.22 525.31 448.83 C 518.25 450.25 510.27 449.25 504.78 444.25 C 495.32 436.24 495.25 419.79 504.61 411.67 Z" />
<path fill="#0083d3" opacity="1.00" d=" M 547.62 407.14 C 552.16 407.12 556.70 407.12 561.24 407.14 C 561.35 415.11 561.13 423.10 561.33 431.07 C 561.26 434.48 564.56 437.24 567.90 436.80 C 570.98 436.77 573.48 433.93 573.48 430.91 C 573.60 422.99 573.45 415.06 573.54 407.14 C 578.05 407.13 582.58 407.13 587.10 407.13 C 587.08 414.74 587.20 422.35 587.05 429.96 C 586.96 435.70 584.66 441.54 580.19 445.27 C 575.26 449.51 568.18 450.35 562.01 448.91 C 554.30 447.03 548.14 439.92 547.81 431.91 C 547.35 423.66 547.70 415.39 547.62 407.14 Z" />
<path fill="#0083d3" opacity="1.00" d=" M 619.34 407.49 C 625.78 405.34 633.22 406.30 638.81 410.20 C 644.58 414.12 648.20 421.02 648.03 428.02 C 648.19 435.02 644.50 441.86 638.74 445.78 C 633.67 449.35 627.06 450.34 621.07 448.96 C 612.01 446.80 604.86 438.29 604.57 428.94 C 604.00 419.53 610.44 410.40 619.34 407.49 M 623.21 420.21 C 617.12 423.02 617.18 432.92 623.34 435.62 C 628.41 438.07 634.43 433.36 634.11 427.96 C 634.54 422.52 628.30 417.49 623.21 420.21 Z" />
<path fill="#0083d3" opacity="1.00" d=" M 791.34 411.34 C 796.61 406.67 804.19 405.53 810.92 406.92 C 818.97 408.66 825.97 415.51 826.88 423.86 C 827.65 432.17 827.18 440.53 827.28 448.86 C 822.73 448.87 818.19 448.87 813.65 448.86 C 813.43 441.16 814.00 433.42 813.36 425.74 C 812.69 420.13 805.33 418.09 801.11 421.12 C 796.49 424.50 796.95 433.04 802.39 435.37 C 805.37 436.74 808.67 435.77 811.68 435.03 C 811.65 439.62 811.67 444.21 811.66 448.81 C 804.53 450.30 796.46 449.19 790.96 444.10 C 781.53 435.92 781.69 419.29 791.34 411.34 Z" />
<path fill="#0083d3" opacity="1.00" d=" M 842.53 409.47 C 850.66 404.20 862.58 405.71 868.93 413.10 C 872.12 416.57 873.40 421.36 873.46 425.99 C 873.52 433.61 873.47 441.24 873.46 448.87 C 868.94 448.87 864.42 448.87 859.90 448.87 C 859.75 440.66 860.13 432.44 859.72 424.24 C 859.33 419.85 853.68 417.75 850.24 420.20 C 847.98 421.60 847.45 424.44 847.50 426.90 C 847.47 434.22 847.51 441.54 847.50 448.87 C 843.00 448.87 838.52 448.87 834.03 448.86 C 834.05 441.21 833.94 433.56 834.07 425.92 C 834.23 419.55 837.08 413.02 842.53 409.47 Z" />
<path fill="#0083d3" opacity="1.00" d=" M 935.61 410.66 C 946.49 402.09 965.31 406.71 969.57 420.34 C 971.68 429.67 970.33 439.37 970.70 448.86 C 966.16 448.87 961.62 448.88 957.09 448.86 C 956.90 441.20 957.40 433.51 956.84 425.87 C 956.26 420.38 949.27 418.18 944.95 420.84 C 940.03 423.96 940.22 432.70 945.58 435.24 C 948.58 436.78 951.99 435.83 955.06 435.03 C 955.05 439.63 955.06 444.23 955.05 448.84 C 948.04 450.25 940.13 449.24 934.66 444.31 C 924.69 435.98 925.10 418.39 935.61 410.66 Z" />
<path fill="#0083d3" opacity="1.00" d=" M 978.01 407.14 C 982.17 407.13 986.33 407.13 990.49 407.14 C 990.48 409.09 990.46 411.05 990.43 413.01 C 993.84 408.19 999.90 406.87 1005.49 407.05 C 1005.50 411.31 1005.49 415.58 1005.51 419.84 C 1000.24 419.72 993.43 421.20 992.01 427.14 C 990.41 434.25 991.57 441.64 991.20 448.86 C 986.79 448.87 982.40 448.87 978.01 448.86 C 977.99 434.95 977.99 421.04 978.01 407.14 Z" />
<path fill="#0083d3" opacity="1.00" d=" M 1060.37 411.40 C 1063.35 408.30 1067.80 407.31 1071.96 407.17 C 1077.13 407.05 1082.31 407.17 1087.49 407.13 C 1087.49 410.91 1087.50 414.70 1087.49 418.49 C 1082.08 418.93 1076.35 417.58 1071.14 419.16 C 1071.15 419.59 1071.18 420.46 1071.19 420.89 C 1076.54 423.80 1083.07 425.00 1087.26 429.78 C 1090.98 433.91 1090.63 440.81 1086.75 444.73 C 1084.04 447.75 1079.82 448.56 1075.95 448.74 C 1069.64 449.01 1063.32 448.80 1057.01 448.87 C 1056.99 444.91 1056.99 440.96 1057.00 437.00 C 1062.67 436.88 1068.36 437.24 1074.02 436.84 C 1075.64 436.54 1075.99 435.68 1075.07 434.28 C 1070.40 431.84 1064.89 430.78 1061.06 426.95 C 1056.79 423.03 1056.36 415.64 1060.37 411.40 Z" />
</g>
</svg>
